<?xml version="1.0" encoding="UTF-8" standalone="no"?>
<!-- Created with Inkscape (http://www.inkscape.org/) -->

<svg
   xmlns:dc="http://purl.org/dc/elements/1.1/"
   xmlns:cc="http://creativecommons.org/ns#"
   xmlns:rdf="http://www.w3.org/1999/02/22-rdf-syntax-ns#"
   xmlns:svg="http://www.w3.org/2000/svg"
   xmlns="http://www.w3.org/2000/svg"
   xmlns:sodipodi="http://sodipodi.sourceforge.net/DTD/sodipodi-0.dtd"
   xmlns:inkscape="http://www.inkscape.org/namespaces/inkscape"
   width="744.09448819"
   height="1052.3622047"
   id="svg2"
   version="1.1"
   inkscape:version="0.48.4 r9939"
   sodipodi:docname="bigeye.svg">
  <defs
     id="defs4" />
  <sodipodi:namedview
     id="base"
     pagecolor="#ffffff"
     bordercolor="#666666"
     borderopacity="1.0"
     inkscape:pageopacity="0.0"
     inkscape:pageshadow="2"
     inkscape:zoom="1.4"
     inkscape:cx="298.17413"
     inkscape:cy="869.40746"
     inkscape:document-units="px"
     inkscape:current-layer="layer3"
     showgrid="false"
     inkscape:window-width="1694"
     inkscape:window-height="746"
     inkscape:window-x="90"
     inkscape:window-y="-8"
     inkscape:window-maximized="1" />
  <metadata
     id="metadata7">
    <rdf:RDF>
      <cc:Work
         rdf:about="">
        <dc:format>image/svg+xml</dc:format>
        <dc:type
           rdf:resource="http://purl.org/dc/dcmitype/StillImage" />
        <dc:title></dc:title>
      </cc:Work>
    </rdf:RDF>
  </metadata>
  <g
     inkscape:groupmode="layer"
     id="layer3"
     inkscape:label="background">
    <rect
       style="color:#000000;fill:none;fill-opacity:1;fill-rule:nonzero;stroke:none;stroke-width:3.20000052000000010;stroke-linecap:round;stroke-linejoin:round;stroke-miterlimit:4;stroke-opacity:1;stroke-dasharray:none;stroke-dashoffset:0;marker:none;visibility:visible;display:inline;overflow:visible;enable-background:accumulate"
       id="rect3837"
       width="218.19295"
       height="218.19295"
       x="224.15234"
       y="85.54467"
       rx="2.8571427"
       ry="4.2857146"
       inkscape:export-filename="C:\Users\Johnson\Documents\Works\Web\everest\largeicon.png"
       inkscape:export-xdpi="52.79731"
       inkscape:export-ydpi="52.79731" />
  </g>
  <g
     inkscape:label="Chair"
     inkscape:groupmode="layer"
     id="layer1"
     sodipodi:insensitive="true">
    <g
       id="g3809"
       transform="translate(-2.9898476,0)">
      <path
         sodipodi:nodetypes="cccccc"
         inkscape:connector-curvature="0"
         id="path3789-0"
         d="m 336.96977,215.00504 5.54233,0 7.57615,70.67422 c 30.13311,0.7601 48.07736,5.28767 52.02285,14.14213 l -65.40737,0 z"
         style="color:#000000;fill:#333333;stroke:#333333;stroke-width:1.70000005;stroke-linecap:round;stroke-linejoin:round;stroke-miterlimit:4;stroke-opacity:1;stroke-dasharray:none;stroke-dashoffset:0;marker:none;visibility:visible;display:inline;overflow:visible;enable-background:accumulate" />
      <path
         sodipodi:nodetypes="cccccc"
         inkscape:connector-curvature="0"
         id="path3789"
         d="m 335.60966,215.00504 -5.54233,0 -7.57615,70.67422 c -30.13311,0.7601 -48.07736,5.28767 -52.02285,14.14213 l 65.40737,0 z"
         style="color:#000000;fill:#333333;stroke:#333333;stroke-width:1.70000005;stroke-linecap:round;stroke-linejoin:round;stroke-miterlimit:4;stroke-opacity:1;stroke-dasharray:none;stroke-dashoffset:0;marker:none;visibility:visible;display:inline;overflow:visible;enable-background:accumulate" />
    </g>
    <path
       style="color:#000000;fill:#c83737;fill-opacity:1;fill-rule:nonzero;stroke:#c83737;stroke-width:3.20000052;stroke-linecap:round;stroke-linejoin:round;stroke-miterlimit:4;stroke-opacity:1;stroke-dasharray:none;stroke-dashoffset:0;marker:none;visibility:visible;display:inline;overflow:visible;enable-background:accumulate"
       d="m 262.14285,93.076469 c 46.93837,13.310931 92.82303,12.396641 137.85714,0 1.5261,-0.420092 2.37515,1.960866 2.85714,4.285715 l 24.15607,116.516426 2.62964,12.684 c 0.66184,3.19233 -1.79617,5.43809 -3.92323,5.88486 -31.77474,6.67398 -60.11899,37.35576 -91.44312,37.49598 -31.79415,0.14232 -66.56109,-30.35968 -97.85326,-37.49598 -2.11907,-0.48326 -4.58507,-2.69253 -3.92323,-5.88486 l 2.4409,-11.77365 24.34481,-117.426776 c 0.48199,-2.324849 1.33433,-4.717559 2.85714,-4.285715 z"
       id="rect2985"
       inkscape:connector-curvature="0"
       sodipodi:nodetypes="ssscssssscss" />
    <path
       style="color:#000000;fill:#782121;fill-opacity:1;fill-rule:nonzero;stroke:#782121;stroke-width:3.20000052;stroke-linecap:round;stroke-linejoin:round;stroke-miterlimit:4;stroke-opacity:1;stroke-dashoffset:0;marker:none;visibility:visible;display:inline;overflow:visible;enable-background:accumulate"
       d="m 425.70853,207.5855 3.93431,18.9771 c 0.66184,3.19233 -1.79617,5.43809 -3.92323,5.88486 -31.77474,6.67398 -60.11899,37.35576 -91.44312,37.49598 -31.79415,0.14232 -66.56109,-30.35968 -97.85326,-37.49598 -2.11907,-0.48326 -4.58507,-2.69253 -3.92323,-5.88486 l 3.96375,-19.11908 5.7197,0.004 c 56.08982,46.83035 113.8952,62.59022 176.01936,0.13206 z"
       id="rect2985-4"
       inkscape:connector-curvature="0"
       sodipodi:nodetypes="cssssscccc" />
  </g>
  <g
     inkscape:groupmode="layer"
     id="layer2"
     inkscape:label="Eye"
     sodipodi:insensitive="true">
    <path
       sodipodi:type="arc"
       style="color:#000000;fill:#ffffff;fill-opacity:1;fill-rule:nonzero;stroke:#ffffff;stroke-width:3.20000052;stroke-linecap:round;stroke-linejoin:round;stroke-miterlimit:4;stroke-opacity:1;stroke-dasharray:none;stroke-dashoffset:0;marker:none;visibility:visible;display:inline;overflow:visible;enable-background:accumulate"
       id="path3813"
       sodipodi:cx="302.54068"
       sodipodi:cy="170.49901"
       sodipodi:rx="70.710678"
       sodipodi:ry="70.710678"
       d="m 260.97146,113.29761 a 70.710678,70.710678 0 1 1 -1.13297,0.84075"
       sodipodi:start="4.0839564"
       sodipodi:end="10.347189"
       sodipodi:open="true"
       transform="translate(30.304576,3.5355339)" />
    <path
       sodipodi:type="arc"
       style="color:#000000;fill:#000000;fill-opacity:1;fill-rule:nonzero;stroke:#000000;stroke-width:5.32430077;stroke-linecap:round;stroke-linejoin:round;stroke-miterlimit:4;stroke-opacity:1;stroke-dasharray:none;stroke-dashoffset:0;marker:none;visibility:visible;display:inline;overflow:visible;enable-background:accumulate"
       id="path3813-9"
       sodipodi:cx="302.54068"
       sodipodi:cy="170.49901"
       sodipodi:rx="70.710678"
       sodipodi:ry="70.710678"
       d="m 260.97146,113.29761 a 70.710678,70.710678 0 1 1 -1.13297,0.84075"
       sodipodi:start="4.0839564"
       sodipodi:end="10.347189"
       sodipodi:open="true"
       transform="matrix(0.60101796,0,0,0.60101801,151.01303,71.561566)" />
    <path
       style="color:#000000;fill:#e6e6e6;fill-opacity:1;fill-rule:nonzero;stroke:#e6e6e6;stroke-width:3.20000052;stroke-linecap:round;stroke-linejoin:round;stroke-miterlimit:4;stroke-opacity:1;stroke-dashoffset:0;marker:none;visibility:visible;display:inline;overflow:visible;enable-background:accumulate"
       d="m 322.45802,175.72904 5.11216,6.61878 c 0.61235,0.79282 -0.334,1.7633 -1.04131,3.08908 l -3.94919,7.40245 c -1.11757,2.09481 -3.68547,0.98679 -5.13828,0.35853 -4.94119,-2.13681 -7.89525,-5.46591 -8.07752,-10.45807 -0.0577,-1.58182 -0.66745,-4.34402 1.64532,-4.88094 l 8.19686,-1.90292 c 1.46374,-0.33981 2.63961,-1.01973 3.25196,-0.22691 z"
       id="rect3833"
       inkscape:connector-curvature="0"
       sodipodi:nodetypes="sssssssss" />
  </g>
</svg>
